<?xml version="1.0" encoding="UTF-8"?>
<svg id="Layer_1" data-name="Layer 1" xmlns="http://www.w3.org/2000/svg" viewBox="0 0 185.48 256.1">
  <defs>
    <style>
      .cls-1 {
        fill: #232323;
      }
    </style>
  </defs>
  <path class="cls-1" d="M29.24.55c6.74-.91,13.69-.45,20.48-.27,3.27.54,5.98,3.45,6.26,6.76.79,14.06-1.71,28.7,3.48,42.18,5.16,13.09,10.72,26.02,16.03,39.04,3.09,7.19,4.67,14.99,4.62,22.83-.06,13.65.16,27.32-.12,40.97-1.07,11.35-3.19,22.58-4.7,33.87-.6,5.36-2.25,10.79-1.07,16.19,1.7,7.19,4.02,14.24,5.4,21.5.9,8.13.39,16.33.46,24.49.16,4.33-3.7,8.33-8.1,7.97-21.39.01-42.79.04-64.18-.02-4.69.24-8.25-4.38-7.8-8.85.24-10.45-1.07-21.23,2.44-31.31,1.56-7.22,5.3-14.31,3.85-21.87-1.83-11.94-3.72-23.87-5.55-35.81-.56-3.69-.76-7.44-.74-11.17.02-12.01-.02-24.02.02-36.03,0-7.14,1.25-14.29,3.95-20.92,5.43-13.55,11.22-26.96,16.57-40.55,5.28-13.55,2.79-28.3,3.53-42.44.22-2.96,2.39-5.6,5.17-6.56ZM30.68,7.01c-.57,2.89-.25,5.86-.29,8.78h19.28c-.04-2.8.22-5.63-.2-8.41-.86-1.47-3.14-.63-4.57-.9-4.71.36-9.65-.67-14.22.53ZM30.38,22.22v2.9h12.03v6.41h-12.03c-.21,8.71-2.29,17.29-5.78,25.26-3.45,8.33-6.86,16.66-10.3,24.99-2.52,6.33-5.54,12.52-6.99,19.23,15.91.01,31.82-.01,47.73.01,0,.79.02,2.39.02,3.19s-.01,2.4-.02,3.21c-16.18.01-32.37-.01-48.55.01-.16,14.38-.05,28.76-.06,43.14,4.62.01,9.23,0,13.85.01.01.8.01,2.41.02,3.21-.01.8-.02,2.39-.02,3.19-4.42,0-8.83,0-13.25,0,1.88,12.38,3.9,24.73,5.72,37.11,1.36,8.24-2.42,15.98-4.23,23.83-2.34,6.7-2.23,13.86-2.09,20.87,22.42-.02,44.85,0,67.27-.01.07-6.89.32-13.93-1.88-20.57-1.69-7.94-5.47-15.77-4.18-24.06,1.72-12.4,3.64-24.78,5.42-37.17-14.3-.02-28.6,0-42.89,0-.01-.8-.02-2.4-.02-3.2,0-1.07,0-2.14.02-3.21,14.51.01,29.02.01,43.53,0-.02-14.38.08-28.77-.06-43.15h-8.7c-.01-.8-.02-2.4-.02-3.2s.01-2.41.02-3.21c2.63,0,5.26,0,7.9-.01-1.88-8.28-5.71-15.92-8.87-23.75-5.56-14.94-14.22-29.31-14.27-45.71-.65-.01-1.93-.01-2.57-.02-.01-2.11-.02-4.22-.04-6.32.66-.05,1.98-.13,2.64-.17-.02-.7-.05-2.11-.06-2.81h-19.29ZM6.3,245.21c.43,1.41-.59,4.43,1.68,4.41,21.27.11,42.56.07,63.84.02,2.5.33,1.67-2.9,2-4.42-22.51-.04-45.02-.03-67.52-.01Z"/>
  <path class="cls-1" d="M127.21,56.43c.1-7.71,6.97-14.48,14.68-14.5,11.33-.14,22.67-.04,34-.05,2.32-.23,5.01,1.07,5.39,3.56.32,2.73.22,5.49.22,8.23.11,2.69-1.65,5.55-4.62,5.38-9.68.29-19.38-.08-29.06.12-1.23-.12-2.93.46-2.83,1.97-.32,8.92-.03,17.87-.11,26.81h5.68c10.46.06,20.91-.11,31.36.07,2.17-.14,3.71,2,3.52,4.02-.01,5.64.15,11.29-.09,16.93-.1,2.55-2.88,3.11-4.91,3.35-2.17,43.63-4.09,87.27-6.51,130.89-.69.62-1.38,1.25-2.07,1.88-.06,2.9.29,5.86-.3,8.73-.86,2.31-3.61,2.25-5.64,2.22-21.66-.13-43.33.15-64.99-.14-4.18-.72-2.78-5.91-3.02-8.9.37-2.51-2.03-4.27-1.81-6.76-2.23-42.64-4.54-85.28-6.75-127.92-2.05-.24-4.85-.81-4.93-3.4-.19-5.9-.18-11.84-.01-17.74.06-2.25,2.41-3.48,4.45-3.22,12.76-.04,25.52,0,38.28-.01.06-10.51-.1-21.02.07-31.52ZM138.98,48.8c1.53,1.59,3.08,3.14,4.66,4.69-.01-1.79-.03-3.57-.05-5.35-1.54.2-3.08.42-4.61.66ZM150.04,48.28v4.45c8.34-.02,16.68,0,25.02-.01-.01-1.48-.01-2.96-.01-4.44h-25.01ZM134.24,53.27c-.3,1.49-.57,2.98-.83,4.47,1.81.01,3.62.02,5.43.02-1.51-1.52-3.04-3.02-4.6-4.49ZM133.55,64.17c0,7.93.01,15.85,0,23.78,1.63,0,3.27,0,4.91,0-.01-7.92-.01-15.84,0-23.76-1.64-.01-3.28-.01-4.91-.01ZM90.73,94.36c-.01,3.77-.01,7.54-.01,11.31,29.45.01,58.89.02,88.33,0,0-3.77.01-7.54,0-11.31h-88.32ZM95.74,112.09c2.23,42.21,4.47,84.42,6.7,126.63,21.81.01,43.61,0,65.42.01,2.08-42.21,4.12-84.42,6.19-126.64h-78.31ZM104.33,245.14v4.46c20.37.01,40.75,0,61.12,0,0-1.48.01-2.97.02-4.45-20.38-.02-40.76-.01-61.14-.01Z"/>
  <path class="cls-1" d="M156.35,135.5c3.18-1.19,4.8,4.08,1.48,4.92-3.05.83-4.5-3.99-1.48-4.92Z"/>
  <path class="cls-1" d="M144.13,143.21c2.8-1.46,5.12,2.96,2.42,4.48-2.89,1.87-5.55-3.09-2.42-4.48Z"/>
  <path class="cls-1" d="M107.91,179.05c2.21-2.24,5.71,1.4,3.41,3.49-2.14,2.24-5.69-1.32-3.41-3.49Z"/>
  <path class="cls-1" d="M121.32,179.56c2.97-1.03,4.58,3.85,1.57,4.86-3.2,1.21-4.87-4.08-1.57-4.86Z"/>
  <path class="cls-1" d="M108.07,191.41c2.54-2.28,5.78,2.38,2.78,3.91-2.39,1.68-5.05-2.17-2.78-3.91Z"/>
  <path class="cls-1" d="M161.94,196.31c2.16-2.26,5.73,1.36,3.61,3.57-2.22,2.73-6.4-1.42-3.61-3.57Z"/>
  <path class="cls-1" d="M17.16,225c2.03-8.78,4.03-17.57,6.1-26.34,2.07.48,4.15.96,6.23,1.45-2.03,8.78-4.04,17.56-6.09,26.34-2.08-.49-4.16-.97-6.24-1.45Z"/>
  <path class="cls-1" d="M36.84,198.98h6.4v27.15h-6.4c-.01-9.05-.01-18.1,0-27.15Z"/>
  <path class="cls-1" d="M50.62,200.11c2.07-.48,4.15-.97,6.22-1.44,2.04,8.77,4.06,17.56,6.08,26.34-2.07.48-4.15.96-6.22,1.44-2.04-8.78-4.07-17.56-6.08-26.34Z"/>
  <path class="cls-1" d="M152.27,207.49c2.9-.99,4.54,3.79,1.59,4.83-3.22,1.36-4.98-4.1-1.59-4.83Z"/>
  <path class="cls-1" d="M151.25,223.45c2.57-2.29,6.01,2.16,3.12,4.07-2.49,1.84-5.58-2.09-3.12-4.07Z"/>
</svg>