<?xml version="1.0" encoding="UTF-8"?>
<svg id="Layer_1" data-name="Layer 1" xmlns="http://www.w3.org/2000/svg" viewBox="0 0 265.16 265.8">
  <path d="M49.53,23C69.02,10.06,92.41,4.36,115.5,2.69c20.37-.95,40.96-.26,60.94,4.04,25.15,5.59,48.79,19.31,64.59,39.87,14,17.8,22.58,39.85,24.12,62.44.22,6.92-6.74,12.46-13.45,11.27.71,4.82-.58,9.62-3.19,13.69,8.81,1.67,13.53,13.5,7.31,20.31,3.27,4.71,6.42,9.79,6.85,15.67.27,7.41-4.69,14.4-11.53,17.07-.06,4.07-.04,8.15-.03,12.22,4.66,3.04,7.99,8.16,8.19,13.8.31,12.97-4.62,25.95-13.33,35.55-9.59,10.79-23.91,17.4-38.39,17.18-50-.01-99.99-.01-149.99,0-14.49.23-28.8-6.37-38.4-17.16-8.72-9.6-13.67-22.59-13.35-35.57.19-5.64,3.52-10.77,8.19-13.8,0-5.39.04-10.78-.04-16.16-6.95-2.56-12.06-9.64-11.74-17.12-.23-4.9,2.18-9.38,5.03-13.19.14-2.69-1.08-5.39-.57-8.14.49-5.28,4.9-9.47,9.91-10.69-2.6-4.05-3.89-8.83-3.18-13.64-4.56.55-9.43-1.32-11.78-5.4-2.47-3.72-1.63-8.36-1-12.48,4.07-31.78,22.11-61.69,48.87-79.45ZM108.14,9.97c-18.2,2.09-36.34,7.07-52.07,16.67C27.96,43.93,9.31,75.28,6.69,108.08c-.61,2.95,1.87,6.04,4.95,5.65,80.62.04,161.25.04,241.87,0,2.07.22,3.87-1.07,4.73-2.9.56-3.26-.1-6.57-.59-9.8-4.2-27.8-19.64-53.98-42.65-70.3-17.35-12.42-38.44-18.82-59.55-20.59-15.71-1.6-31.59-1.82-47.31-.17ZM20.31,120.31c-2.17,6.53,3.31,13.94,10.21,13.48,68.04.07,136.08.03,204.12.02,6.96.52,12.19-6.89,10.31-13.41-74.88-.22-149.76-.04-224.64-.09ZM17.12,140.78c-2.1.85-3.99,2.81-4,5.19-.52,3.6,2.91,6.89,6.45,6.64,47.67.03,95.34.02,143.01,0,2.71-.09,5.78.53,7.4,2.93,6.06,8.28,11.78,16.82,17.9,25.06,4.52,5.92,14.51,5.67,18.79-.4,5.93-8.18,11.63-16.51,17.56-24.68,1.24-1.71,3.27-2.7,5.36-2.82,5.85-.31,11.73.19,17.58-.21,4.23-.59,6.5-6.35,3.64-9.6-2.96-3.71-8.14-2.37-12.23-2.59-68.66.18-137.31.03-205.97.07-5.15.17-10.43-.66-15.49.41ZM12.14,157.26c-3.34,4.06-4.68,10.28-1.64,14.87,2.85,4.73,8.97,6.72,14.19,5.22,6.64-2,12.1-6.91,19.01-8.22,6.33-1.44,12.84.6,18.47,3.46,5.51,2.59,11,6.36,17.35,5.97,8.1-.87,13.26-8.44,21.08-10.14,2.32-.4,4.7-.32,7.04-.18,9.16,1.11,15.86,8.86,24.9,10.25,8.78-.61,15.01-8.97,24.03-8.94,8.98-.23,15.31,7.08,22.83,10.79-4.81-7.13-9.89-14.07-14.83-21.11-45.66-.17-91.33-.03-137-.08-5.17-.14-10.71.79-15.43-1.89ZM229.61,159.24c-2.85,4.07-5.66,8.18-8.71,12.11,7.09,2.92,13.13,8.17,20.64,10.07,6.01,1.56,12.45-2.28,14.26-8.13,1.17-5.48-2.04-10.56-5.29-14.66-6.92,1.05-13.94.24-20.9.61ZM20.66,184.46c.02,4.24-.02,8.48.06,12.72,1.62-.09,3.24-.18,4.87-.19h131.97c28.96.12,57.92-.25,86.86.19.06-2.94.05-5.87.06-8.8-10.51-.05-18.12-8.43-27.74-11.17-2.88,4.31-5.53,9.19-10.21,11.8-5.96,3.47-13.85,3.33-19.61-.51-2.16-1.57-5.03-.69-7.44-1.5-7.13-1.6-12.14-7.46-18.74-10.18-3.65-1.44-7.71-.35-10.98,1.52-5.64,3.08-11.41,7.12-18.14,6.71-9.27-1.05-16.01-8.58-24.99-10.37-5.68-1.07-10.28,2.97-14.68,5.85-5.29,3.52-12.01,5.93-18.34,4.06-9.14-1.84-16.43-9.35-26.03-9.38-9.69.81-16.88,9.69-26.92,9.25ZM22.92,203.58c-5.23-.17-10.08,4.16-10.48,9.39-.5,14.11,6.37,28.1,17.49,36.72,7.79,6.15,17.66,9.6,27.59,9.6,50.36-.03,100.72,0,151.08,0,10.1-.21,20.03-4.01,27.75-10.52,10.46-8.65,16.82-22.17,16.36-35.78-.41-5.46-5.64-9.81-11.06-9.42-72.91,0-145.82-.04-218.73.02Z"/>
  <path d="M107.37,22.87c3.76-.33,7.75-1.8,11.41-.26.31.64.93,1.91,1.24,2.54-1.58,4.75-7.49,3.4-11.4,3.77-2.87-.67-2.47-4.09-1.25-6.05Z"/>
  <path d="M47.09,49.55c12.28-12.42,28.58-20.26,45.47-24.13,1.9-.6,4.75.11,4.7,2.53.67,3.38-3.32,3.91-5.71,4.51-18.49,4.51-35.72,14.86-47.26,30.16-7.11,9.1-12.39,19.6-15.59,30.69-2.49,2.14-7.11.33-5.84-3.27,4.49-15.24,12.95-29.3,24.23-40.49Z"/>
</svg>