<?xml version="1.0" encoding="UTF-8"?>
<svg id="Layer_1" data-name="Layer 1" xmlns="http://www.w3.org/2000/svg" viewBox="0 0 459 459">
  <defs>
    <style>
      .cls-1 {
        fill: #fff;
      }
    </style>
  </defs>
  <path class="cls-1" d="M172.17,66.38c29.25-10,61.2-11.82,91.41-5.34,32.52,6.85,62.88,23.5,86.23,47.14,25.58,25.54,42.73,59.36,48.2,95.11-2.7,1.94-5.27,4.06-7.65,6.38-4.04-32.76-18.25-64.16-40.23-88.78-23.29-26.34-55.22-44.92-89.7-51.9-32.73-6.69-67.51-3.17-98.11,10.27-29.07,12.6-54.23,33.92-71.67,60.34-12.48,18.79-20.9,40.23-24.72,62.45-2.97.64-5.94,1.32-8.89,2.04,4.81-32.51,19.27-63.48,40.97-88.13,19.85-22.6,45.65-39.95,74.16-49.58Z"/>
  <path class="cls-1" d="M207.64,76.8c2.85-.34,5.7-.62,8.56-.89.03.92.06,1.84.09,2.77-1.61.11-3.21.24-4.81.37.21,1.91.41,3.83.62,5.75,1.38-.14,2.76-.27,4.14-.4.02.69.05,2.08.07,2.77-1.32.08-2.63.17-3.95.27.2,2.08.4,4.15.62,6.23,1.52-.04,3.05-.06,4.57-.06-.03.62-.1,1.86-.14,2.47-2.44.2-4.88.42-7.31.71-.82-6.66-1.63-13.33-2.46-19.99Z"/>
  <path class="cls-1" d="M224.25,75.75c3.28.42,7.71-1.23,10.1,1.7.28,3.66.54,7.79-1.87,10.85.51,2.66,1.02,5.32,1.44,8-.72-.14-2.18-.42-2.9-.55-1.16-2.93-.64-6.64-3.19-8.88-.38,2.95-.34,5.94-.31,8.91-.76,0-2.28,0-3.04,0-.41-6.67-.14-13.35-.23-20.02ZM227.75,78.09c-.02,2.39-.02,4.78-.01,7.18.75-.03,2.25-.08,3.01-.1.18-2.12.26-4.25.3-6.38-1.1-.24-2.2-.47-3.3-.7Z"/>
  <path class="cls-1" d="M195.42,78.76c.9-.15,2.68-.45,3.57-.61.97,5.82,2.41,11.57,3,17.44.05,2.89-3.37,3.21-5.52,3.58-1.78.57-3.71-.54-4.04-2.38-1.66-5.43-2.83-10.99-4.41-16.44,1.19-.23,2.39-.46,3.58-.69,1.37,5.57,2.67,11.15,4.08,16.71,1.07-.16,2.15-.33,3.22-.49-1.02-5.73-2.31-11.41-3.48-17.12Z"/>
  <path class="cls-1" d="M254.44,78.41c1.19.22,2.39.43,3.58.64-.58,2.76-1.17,5.52-1.81,8.27.88.21,2.63.63,3.5.84.68-2.71,1.37-5.43,2.03-8.15,1.18.28,2.37.56,3.56.84-1.81,6.49-3.5,13.01-5.29,19.5-.77-.2-2.31-.61-3.08-.81.68-2.92,1.38-5.83,2.11-8.73-.84-.22-2.53-.65-3.38-.86-.65,3.04-1.33,6.09-1.99,9.13-.72-.28-2.17-.83-2.89-1.11.93-6.57,2.53-13.02,3.66-19.56Z"/>
  <path class="cls-1" d="M171.15,86.61c2.12-1.75,4.88-2.32,7.42-3.16,1.77,1.17,2.77,3,3.45,4.96-1.16.4-2.31.8-3.46,1.19-.28-.71-.83-2.12-1.11-2.83-.75.21-2.26.63-3.01.84,1.41,4.68,3.28,9.21,5.09,13.75.92-.27,1.84-.54,2.77-.81-.39-1.27-.78-2.53-1.16-3.8-.55-.16-1.66-.49-2.22-.65-.1-.5-.31-1.51-.42-2.02,1.57-.53,3.14-1.06,4.72-1.58.97,3.2,2,6.37,3.05,9.54-2.76.78-5.42,2.37-8.36,2.17-2.35-2.04-2.84-5.34-4.14-8.02-1-3.13-3.25-6.16-2.62-9.58Z"/>
  <path class="cls-1" d="M273.58,84.67c3.38-.6,7.2.72,9.58,3.18.47,3.16-1.62,5.91-2.61,8.77-1.38,2.71-1.92,6-4.12,8.19-2.89.62-5.81-.86-8.14-2.45-.86-2.35.56-4.66,1.16-6.9,1.38-3.59,2.08-7.49,4.13-10.79ZM276.05,87.29c-1.69,4.51-3.35,9.05-4.9,13.61,1.11.45,2.23.9,3.35,1.35,1.89-4.55,3.79-9.1,5.44-13.75-1.3-.41-2.59-.82-3.89-1.21Z"/>
  <path class="cls-1" d="M152.59,94.81c3.12-1.31,6.24-4.53,9.81-3.47,2.41,2.78,4.22,6.59,3.68,10.37,1.67,2.08,3.38,4.12,5.08,6.19-.7.35-2.08,1.05-2.78,1.4-2.11-2.28-3.73-5.45-6.97-6.26,1.17,2.71,2.55,5.32,3.96,7.91-.74.36-2.23,1.08-2.97,1.44-3.21-5.89-6.61-11.68-9.81-17.58ZM157.09,95.33c1.09,2.08,2.17,4.17,3.29,6.24.67-.44,1.99-1.31,2.65-1.74-.93-1.9-1.88-3.79-2.83-5.67-1.04.38-2.08.77-3.11,1.17Z"/>
  <path class="cls-1" d="M284.75,106.67c2.17-5.32,5.09-10.29,7.56-15.48,1.09.54,2.19,1.08,3.29,1.62-2.62,5.19-5.53,10.25-7.94,15.55.74.35,2.23,1.06,2.97,1.41,2.85-5.02,5.65-10.06,8.47-15.1,1.09.63,2.18,1.26,3.27,1.88-2.76,4.55-5.36,9.19-8.14,13.73-.9,1.52-2.63,3.29-4.5,2.13-2.35-.91-6.28-2.53-4.98-5.74Z"/>
  <path class="cls-1" d="M141.74,101.62c1.04-.71,2.08-1.43,3.12-2.14,3.01,4.84,6.36,9.46,9.18,14.42,1.91,3.3-2.3,5.57-4.75,6.75-1.57.97-3.24-.47-4.17-1.66-3.32-4.23-6.49-8.58-9.77-12.84,1.02-.76,2.04-1.51,3.07-2.26,3.39,4.62,6.69,9.31,10.1,13.92.74-.39,2.23-1.17,2.97-1.56-3.02-5.02-6.52-9.74-9.75-14.63Z"/>
  <path class="cls-1" d="M304.52,109.08c1.72-2.31,2.69-6.12,5.92-6.59,2.42.62,4.62,2.16,6.15,4.13,1.18,1.91-.54,3.72-1.19,5.46-1.12-.69-2.22-1.38-3.32-2.08.5-.86,1.02-1.71,1.53-2.57-.58-.42-1.74-1.26-2.33-1.68-.99,1.25-1.96,2.51-2.92,3.78,1.04,2.21,2.97,4.25,3.08,6.75-1.3,2.26-2.97,4.35-5.06,5.92-2.69.19-5.01-1.81-6.52-3.83-.21-1.52.3-3.01.54-4.5.95.45,1.9.9,2.85,1.36.11,1.52.49,2.97,1.13,4.36,1.22-1.38,2.41-2.79,3.58-4.21-1.13-2.11-2.3-4.2-3.44-6.3Z"/>
  <path class="cls-1" d="M147.77,135.76c21.97-18.8,50.78-29.62,79.74-29.27,26.84-.32,53.59,8.88,74.86,25.19,22.52,17.14,38.82,42.22,45.26,69.79-2.26,4.09-2.95,8.78-1.58,13.29-1.1-1.23-2.48-2.4-2.5-4.2-4.15-25.55-17.11-49.51-36.15-67.02-19.25-18-44.71-29.21-71.01-31.1-27.95-2.22-56.59,6.11-78.96,23.02-22.63,16.74-38.79,41.85-44.81,69.34-1.79-.7-3.58-1.39-5.37-2.06,5.8-25.92,20.2-49.86,40.52-66.98Z"/>
  <path class="cls-1" d="M119.99,119.57c2.37-2.17,4.44-4.94,7.55-6.08,3.39,0,5.32,3.7,6.56,6.42,3.37.83,5.01,4.17,7.03,6.67-1.9,2.78-4.4,5.06-6.9,7.28-4.74-4.77-9.55-9.48-14.24-14.29ZM127.1,116.79c-.78.69-1.55,1.38-2.32,2.07,1.35,1.38,2.7,2.75,4.06,4.12.65-.84,1.3-1.67,1.95-2.51-1.22-1.24-2.45-2.47-3.69-3.68ZM133.12,122.86c-.89.62-1.78,1.25-2.67,1.87,1.5,1.59,2.99,3.18,4.47,4.79l2.22-2.34c-1.33-1.45-2.67-2.9-4.02-4.32Z"/>
  <path class="cls-1" d="M325.25,113.3c2.23,2.02,4.46,4.05,6.62,6.15-.66.68-1.31,1.37-1.95,2.06-1.24-1.22-2.47-2.44-3.71-3.65-1.27,1.4-2.54,2.8-3.82,4.19,1.04,1.03,2.08,2.06,3.13,3.08-.51.49-1.51,1.47-2.02,1.96-1.02-1-2.03-2-3.04-3-1.41,1.5-2.8,3.02-4.19,4.55,1.08,1.09,2.17,2.19,3.25,3.29-.51.48-1.52,1.44-2.03,1.91-1.86-1.84-3.74-3.68-5.65-5.46,4.44-5.05,8.92-10.07,13.41-15.08Z"/>
  <path class="cls-1" d="M109.37,140.21c1.62-1.47,3.24-2.94,4.84-4.43.21,2.19.42,4.38.63,6.58,1.88,1.06,3.76,2.14,5.65,3.21-1.99.86-3.98,1.71-5.99,2.52-.49,2.13-.96,4.26-1.42,6.4-1.48-1.62-2.73-3.5-4.5-4.81-2.1.04-4.18.35-6.27.56,1.13-1.86,2.25-3.71,3.39-5.55-.87-1.99-1.75-3.97-2.62-5.95,2.1.48,4.19.97,6.29,1.47Z"/>
  <path class="cls-1" d="M336.82,135.57c1.68,1.47,3.38,2.92,5.1,4.35,2.08-.58,4.16-1.14,6.24-1.68-.85,2.03-1.69,4.06-2.51,6.11,1.2,1.81,2.39,3.63,3.57,5.46-2.17-.18-4.34-.37-6.5-.57-1.4,1.75-2.81,3.48-4.21,5.22-.51-2.15-1.01-4.29-1.5-6.44-2.06-.8-4.12-1.6-6.18-2.41,1.87-1.15,3.75-2.3,5.64-3.42.14-2.21.26-4.41.35-6.62Z"/>
  <path class="cls-1" d="M188.27,141.44c11.55-2.79,23.37-4.54,35.25-4.93,6.88.1,14.18-.64,20.64,2.22,4.79,3.12,2.48,10.81-2.03,13.11-1.31-1.38-2.34-3.22-4.22-3.89-5.7-2.16-11.91-1.87-17.89-2.24-9.8,13.08-20.01,25.94-28.16,40.14-2.91,5.21-5.78,10.67-6.56,16.67-.45,2.34,1.23,4.22,2.23,6.14-2.5,5.17-10.77,3.24-12.12-1.95-2.12-7.57,1.29-15.28,4.2-22.18,6.26-13.5,14.85-25.78,24.06-37.42-9.71,1.22-19.53,2.58-28.75,6.03-2.9.99-5.39,2.9-7.01,5.51,3.6,2.87,8.43,2.21,12.72,2.51.66,3.85-2.49,7.38-6.24,7.78-5.31.57-11.24-1.88-13.82-6.71-1.74-3.71.14-8.02,3.23-10.36,7.06-5.59,15.91-8.15,24.47-10.43Z"/>
  <path class="cls-1" d="M221.71,154.74c3.14-4.11,9.42-3.33,13.33-.82,2.39,2.14-.39,4.61-1.8,6.32-10.38,11.22-20.82,22.79-27.45,36.71,7.7-7.48,16.18-14.14,25.12-20.06,4.03-2.88,9.23-5.07,14.14-3.13,2.02.6,3.92,3.33,1.81,4.94-6.76,6.58-13.12,14.17-15.7,23.43,5.84-2.36,10.74-6.47,15.53-10.46,3.42-2.73,4.88-7.03,7.84-10.16,5.42-6,12.91-10.55,21.08-11.22,4.91-.39,9.56,4.1,9.35,9.03-1.1,3.42-4.05,5.73-6.77,7.85-3.26,2.31-6.72,4.54-10.67,5.42-2.46.68-4.41-1.36-6.32-2.51-1.43,3.08-4.9,8.22-.64,10.51,9.09,1.13,17.74-3.79,24.59-9.32,2.2-1.49,3.73-4.18,6.35-4.86,3.69,1.5.55,5.19-1.16,7-7.65,7.66-17.91,13.17-28.79,14.09-6.26.78-13.07-2.92-14.71-9.24-3.85,3.63-7.8,7.26-12.47,9.81-6.09,4.07-14.65-3.51-12.6-10.1,1.06-4.33,3.36-8.19,5.47-12.07-5.92,4.87-11.85,9.73-17.34,15.08-2.55,2.53-4.93,5.35-6.05,8.83-4.61,2.4-8.85-2.87-9.31-7.09-.39-7.17,3.42-13.61,6.55-19.78,5.82-10.1,12.55-19.77,20.62-28.2ZM265.28,185.15c5.3-1.64,11.24-3.8,14.1-8.94-6.1-.29-10.41,4.81-14.1,8.94Z"/>
  <path class="cls-1" d="M356.92,201c2.58-2.36,5.76-5.07,9.53-4.43,3.62.92,7.02,3.51,8.49,7,.4,3.58-1.08,7.01-2.15,10.35,5.3,1.76,13.58,3.5,13.43,10.56-2.21,11.61-16.17,17.17-16.9,29.45,8.15-3.77,13.72-11.32,19.31-18.06-2.38-6.55.37-13.65,4.47-18.86,5.46-6.74,13.5-11.99,22.37-12.22,5.31.39,11.46,4.08,11.96,9.83-.49,6.44-3.94,12.78-9.15,16.61-4.43,3.6-12.2-2.15-9.64-7.23,5.74-1.4,11.55-5.51,12.6-11.67-10.22-.28-19.22,8.38-20.76,18.22,4.48,5.8,13.7,6.7,16.06,14.31,5.43-3.53,10.09-8.04,13.99-13.18,1.68,1.07,3.44,2.57,2.23,4.75-3.47,8.92-13,12.88-20.51,17.74-5.56,5.28-11.7,11.29-19.71,12.11-5.11-.06-7.07-5.75-7.54-9.98,7.7-1.93,15.67-4.05,22.11-8.91-4.6-3.27-10.18-4.76-14.8-8.01-4.38,7.06-8.97,14.18-15.19,19.78-2.7,2.18-5.87,4.68-9.55,4.28-4.26-1.13-7.96-4.16-10.21-7.92-1.43-2.27-.91-5.11-.23-7.54,3.21-9.9,12.73-16.21,15.67-26.24-.7-.49-2.08-1.48-2.78-1.98-4.21,7.53-7.78,15.45-12.66,22.59-5.07,6.83-10.21,13.91-17.58,18.45-5.19,3.37-10.95,6.2-17.16,6.94-7.28.85-14.12-4.73-15.87-11.65-4.08,5.75-8.55,11.89-15.31,14.63-3.58,1.48-6.73-1.74-8.91-4.18-2.61-2.86-3.47-6.79-2.9-10.56-3.6,5.49-7.62,10.78-12.48,15.22-1.96,1.65-4.44,3.63-7.19,2.8-4.62-1.49-8.52-5.68-9.21-10.53-.23-7.89,2.15-15.58,4.94-22.87,2.55-5.99,5.41-12.19,10.43-16.53,3.94-3.56,11.87-1.97,13.26,3.4-2.98,6.05-7.69,11.1-10.73,17.15-2.38,4.67-5.07,9.26-6.53,14.32-.25,1.77-1.14,4.12.51,5.47,4.6-1.49,7.91-5.28,10.72-9.03,5.48-7.51,9.59-15.88,14.3-23.86,2.08-3.45,4.19-7.04,7.4-9.56,2.47-1.83,5.76-.61,8.13.79,1.98,1.14,4.49,3.73,2.53,5.99-6.72,10-13.94,20.48-15.43,32.75,5.18-2.64,9.19-6.96,13.09-11.15,2.42-2.71,5.04-5.42,6.23-8.93,3.56-9.17,10.24-17.35,19.15-21.72,2.76-1.25,5.8-2.32,8.87-2.04,6.02,1.31,10.37,8.59,7.52,14.37-3.14,7.1-9.35,12.95-16.69,15.5-2.86,1.13-4.94-1.54-6.88-3.13-1.35,4.01-3.61,8.62-1.57,12.77,1.85,2.81,5.69,1.55,8.35.92,8.49-2.61,15.94-8.55,20.53-16.14,5.18-7.89,9.88-16.1,13.95-24.62-3.71-1.78-8.63-2.79-10.56-6.81-.35-3.74,2.2-6.97,4.65-9.51ZM362.35,210.01c1,.57,2.01,1.13,3.03,1.69,1.17-2.85,2.25-5.75,3-8.74-2.62,1.76-4.7,4.19-6.03,7.05ZM335.28,226.29c-4.25,2.91-7.31,7.21-9.88,11.61,4.91-1.84,9.36-4.93,12.67-9,.87-.97,1.15-2.29,1.42-3.52-1.49-.25-3-.01-4.21.91Z"/>
  <path class="cls-1" d="M73.44,207.85c11.09-1.78,22.78-1.75,33.43,2.14,5.89,2.19,11.68,6.56,12.97,13.05,1.62,6.47-1.79,12.99-6.44,17.32-6.37,5.88-14.25,9.86-22.28,12.95,5.4,2.18,10.36,6.42,11.83,12.25,1.96,8.69-1.18,17.88-6.77,24.6-7.06,8.5-17.06,14.04-27.38,17.61-8.06,2.6-16.66,4.39-25.14,3.1-4.91-.86-10.08-3.43-12.07-8.27-2.2-5.2.48-11.8,5.81-13.8,1.85,2.96,3.54,6.6,7.19,7.65,6.14,1.82,12.66.37,18.71-1.1,9.64-2.82,19.62-6.89,26.11-14.9,3.34-4.21,5.4-10.93,1.63-15.5-4.24-4.5-10.91-5.18-16.74-5.34-4.44.16-9.2.29-13.17,2.53-3.93,3.65-5.09,9.27-6.4,14.28-1.59,5.62-1.21,11.53-2.13,17.22-4.69,1-7.44-4.08-8.26-7.92-1.43-8.78,1.8-17.4,4.77-25.51-1.75-3.82-3-8.35-1.2-12.39,1.98-1.17,4.6-.08,6.82-.27,4.17-7.98,7.62-16.43,13.14-23.62,2.31-2.96,5.62-5.93,9.67-5.44,3.99.09,8.31,4.8,5.53,8.59-3.89,6.75-8.56,13.03-12.81,19.55,11.05-2.18,22.07-5.65,31.57-11.84,3.73-2.58,7.99-6.35,7.38-11.36-.85-4-5.3-5.55-8.78-6.57-13.66-3.18-28.38-1.78-41.09,4.22-8.72,4.01-17.21,9.81-21.73,18.53-1.92,3.44-2.29,7.41-2.86,11.23-6.5-1.08-11.94-7.89-10.21-14.54,1.12-7.68,7.12-13.49,13.53-17.24,10.79-6.29,23.15-9.21,35.37-11.21Z"/>
  <path class="cls-1" d="M174.06,219.1c2.55-2.19,6.09-4.64,9.57-3.07,2.93,1.27,6,3.3,7.04,6.5.4,3.6-1.11,7.03-2.16,10.39,4.32,1.37,9.6,2.04,12.37,6.06,2.53,3.56.2,7.95-1.83,11.13-4.83,7.48-13.43,13.32-13.89,22.95,6.5-3.08,11.02-8.95,15.71-14.19,3.21-3.28,3.84-8.03,6.23-11.82,5.24-9.11,13.72-17.24,24.36-19.21,3.32-.78,6.26,1.19,8.83,2.99,1.48-1.73,2.48-4.69,5.19-4.58,3.1-.11,6.57.23,8.94,2.45.31,2.75-1.52,5.09-2.3,7.61-7.43,20.04-11.83,41.4-22.76,59.99-4.5,7.39-10.87,14.9-19.88,16.4-5.32,1.07-10.53-4.01-10.02-9.3.01-1.76,1-3.29,1.7-4.83.79.39,2.38,1.18,3.17,1.58,5.44-1.98,9.72-6.11,13-10.76,6.13-8.63,10.28-18.55,12.96-28.75-3.24,5.48-6.39,11.16-10.94,15.69-2.03,1.92-4.88,4-7.81,2.87-5.14-1.86-8.14-7.02-9.57-12.03-4.53,6.36-9.54,13.82-17.65,15.6-4.47-.65-8.32-3.68-10.83-7.32-1.95-2.76-1.28-6.32-.18-9.26,3.52-9.34,12.33-15.62,15.24-25.26-.65-.56-1.94-1.69-2.59-2.25-6.23,10.63-10.51,22.82-19.84,31.3-4.65,5.95-8.94,12.91-16.17,16-3.81,1.76-7.31-1.77-9.58-4.43-2.53-2.72-2.91-6.52-2.68-10.06-3.71,5.26-7.51,10.57-12.37,14.85-2.03,1.61-4.64,3.68-7.38,2.64-5.43-1.97-9.96-7.64-9.09-13.62.93-9.98,4.28-19.67,9.17-28.39,2.2-3.58,4.7-7.45,8.71-9.18,4.06-1.15,9.34.51,10.88,4.73-3.2,6.56-8.35,11.98-11.53,18.58-2.61,5.59-6.5,11.04-6.37,17.47,2.23,1.86,4.86-1,6.68-2.25,8.58-8.27,13.32-19.47,19.45-29.49,2.38-3.73,4.53-8.13,8.67-10.17,3.61-.69,7.64,1.22,9.61,4.29,1.17,1.68-.48,3.44-1.3,4.86-6.64,9.35-12.85,19.59-14.52,31.13,5.92-3,10.39-8.09,14.75-12.95,6.38-8.43,11.27-17.89,15.65-27.49-3.85-1.63-8.91-2.69-10.72-6.91.01-4.28,3.12-7.73,6.08-10.49ZM178.12,229.23c1.01.54,2.02,1.07,3.04,1.6,1.18-2.9,2.29-5.83,3.01-8.88-2.68,1.8-4.74,4.34-6.05,7.28ZM219.97,248.04c-3.46,6.19-6.69,13.2-5.73,20.46,6.07-2.82,9.66-8.78,13.01-14.27,3.79-6.56,7.27-13.31,10.83-20-8.22.48-14.16,7.22-18.11,13.81Z"/>
  <path class="cls-1" d="M44.28,241.18c3.05-3.88,6.6-7.36,10.81-9.97-1.4,2.95-2.89,5.87-4.36,8.79-2.16.3-4.31.71-6.45,1.18Z"/>
  <path class="cls-1" d="M104.96,254.7c2.6-1.49,5.14-3.1,7.68-4.69-1.53,3.37-2.9,6.82-4.09,10.33-1.14-1.92-2.34-3.8-3.59-5.64Z"/>
  <path class="cls-1" d="M338.01,269.94c2.58-1.48,5.13-3.03,7.65-4.62-8.36,27.53-26.59,51.95-50.76,67.59-24.72,16.35-55.51,23.06-84.81,18.81-36.52-4.93-69.89-27.51-88.58-59.19,1.7-.9,3.39-1.83,5.07-2.78,15.17,25.43,40.15,44.83,68.66,52.93,25.23,7.3,52.91,5.77,77.15-4.37,30.14-12.35,54.48-37.78,65.62-68.37Z"/>
  <path class="cls-1" d="M64.32,269.25c.48-1.51,2.22-1.73,3.41-2.44,1.63,5.93,3.24,11.87,5.32,17.66-4.22,1.93-8.61,3.47-13.11,4.62.56-6.75,1.6-13.61,4.38-19.84Z"/>
  <path class="cls-1" d="M386.04,271.64c2.66,1.07,5.46,1.69,8.33,1.81-7.71,29.36-23.32,56.65-44.9,78.03-17.65,17.81-39.29,31.63-62.84,40.22-34.79,12.73-73.73,13.79-109.16,2.97-42.75-12.82-79.81-43.11-101.17-82.26,2.59-1.18,5.16-2.38,7.7-3.68,13.53,24.44,33.32,45.4,57.06,60.15,27.15,16.97,59.38,25.74,91.39,24.67,29.2-.79,58.12-9.67,82.74-25.4,34.55-21.82,60.51-56.94,70.85-96.51Z"/>
  <path class="cls-1" d="M143.89,330.67c2.88-.93,5.14,1.72,6.89,3.59,1.99,2.2-.24,4.83-1.46,6.75-1.08-.86-2.15-1.73-3.21-2.61l2-2.28c-.77-.77-1.54-1.52-2.32-2.27-1.22,1.3-2.43,2.61-3.64,3.91.95,2.56,2.64,4.96,2.83,7.74-1.54,2.24-3.15,4.64-5.53,6.07-3.19.41-5.55-2.39-7.42-4.56-1.79-1.94-.22-4.4.83-6.25,1.21.96,2.41,1.94,3.6,2.94-.39.49-1.17,1.49-1.56,1.99.83.79,1.67,1.59,2.51,2.38,1.24-1.34,2.45-2.7,3.67-4.05-1.04-2.43-2.26-4.82-2.88-7.4,1.32-2.43,3.45-4.37,5.69-5.95Z"/>
  <path class="cls-1" d="M305.6,334.81c.9-.89,1.8-1.79,2.72-2.67,4.34,4.78,8.71,9.53,13.15,14.23,1.3-1.29,2.6-2.58,3.92-3.86.52.53,1.57,1.58,2.09,2.1-2.33,2.44-4.76,4.78-7.27,7.03-4.82-5.65-9.74-11.22-14.61-16.83Z"/>
  <path class="cls-1" d="M158.63,340.55c2.74,1.97,5.55,3.84,8.37,5.7-.4.62-1.19,1.86-1.59,2.48-.91-.6-1.81-1.19-2.71-1.78-3.49,5.42-7.03,10.8-10.57,16.19-1.19-.8-2.38-1.59-3.56-2.38,3.7-5.27,7.3-10.61,11.01-15.87-.66-.46-1.98-1.39-2.64-1.85.56-.83,1.12-1.66,1.69-2.49Z"/>
  <path class="cls-1" d="M292.99,344.26c1.01-.69,2.03-1.38,3.05-2.07,3.66,5.29,7.34,10.56,11.03,15.82,1.44-1.05,2.88-2.1,4.32-3.14.46.61,1.39,1.84,1.85,2.45-2.62,1.92-5.28,3.78-7.94,5.64-4.14-6.21-8.24-12.44-12.31-18.7Z"/>
  <path class="cls-1" d="M282.43,350.42c1.08-.57,2.17-1.15,3.26-1.72,3.56,6.52,7.21,12.99,10.76,19.51-1.22.68-2.43,1.36-3.64,2.04-3.54-6.57-6.86-13.25-10.38-19.83Z"/>
  <path class="cls-1" d="M162.9,369.6c3.5-6.59,6.97-13.21,10.5-19.79,2.79,1.82,7.12,2.35,8.41,5.78-1.09,3.9-2.14,8.69-6.21,10.54-.38,2.96-.75,5.93-1.14,8.9-1.19-.52-2.39-1.05-3.59-1.57.13-3.49,2.19-7.23.36-10.54-1.77,2.71-3.13,5.65-4.6,8.51-1.25-.61-2.49-1.22-3.73-1.83ZM171.89,360.99l3.12,1.32c1.13-2.14,2.15-4.33,3.08-6.56-.91-.56-1.82-1.12-2.73-1.67-1.17,2.3-2.32,4.61-3.47,6.91Z"/>
  <path class="cls-1" d="M265.47,357.59c2.97-.89,5.8-2.66,8.97-2.6,2.41,1.36,2.95,4.33,4.07,6.65.98,1.75.59,3.72.27,5.59,1.83,2.35,3.7,4.67,5.59,6.98-1.23.53-2.46,1.05-3.68,1.59-2.28-2.68-3.85-6.22-7.15-7.83.5,3.27,1.77,6.34,2.89,9.44-1.31.43-2.61.86-3.9,1.3-2.37-7.04-4.69-14.09-7.06-21.12ZM269.81,359.02c.88,2.52,1.78,5.03,2.7,7.54.99-.84,3.58-1.01,2.62-2.83-.71-2.51-1.9-6.92-5.32-4.71Z"/>
  <path class="cls-1" d="M190.33,357.17c2.62.86,5.27,1.68,7.92,2.46-.19.71-.56,2.13-.74,2.84-1.57-.43-3.15-.87-4.71-1.3-.62,2.02-1.24,4.05-1.86,6.08,1.44.39,2.88.8,4.32,1.2-.17.73-.53,2.17-.7,2.9-1.52-.44-3.03-.87-4.54-1.3-.68,2.23-1.36,4.46-2.04,6.7,1.75.5,3.51.99,5.27,1.49-.18.73-.55,2.19-.73,2.92-3.16-.89-6.29-1.85-9.4-2.87,2.41-7.04,4.83-14.08,7.21-21.12Z"/>
  <path class="cls-1" d="M248.39,365.47c-.86-4.06,4.21-4.82,7.11-4.75,2.94-.28,3.2,3.29,4.05,5.29-1.23.34-2.44.68-3.66,1.03-.25-.86-.74-2.57-.98-3.42-1.02.23-2.04.47-3.05.72,1.2,5.14,1.37,10.74,3.49,15.56.86-.04,2.58-.13,3.44-.17-.71-2.2-.51-5.44-3.58-5.66-.43-3.17,3.45-2.51,5.41-3.41.88,3.6,1.78,7.2,2.73,10.79-3.79.48-8.17,3.14-11.73.83-1.91-5.37-2.13-11.23-3.23-16.81Z"/>
  <path class="cls-1" d="M205.71,361.36c2.71.46,5.43.88,8.15,1.29-.1.72-.29,2.17-.39,2.89-1.6-.22-3.2-.42-4.8-.62-.37,2.06-.72,4.12-1.08,6.19,1.54.27,3.09.54,4.64.83-.16.7-.47,2.09-.62,2.79-1.51-.22-3.01-.44-4.5-.66-.38,2.3-.76,4.6-1.14,6.91,1.78.27,3.56.54,5.34.82-.08.98-.15,1.96-.21,2.95-3.22-.45-6.43-.95-9.63-1.51,1.33-7.31,2.85-14.58,4.24-21.88Z"/>
  <path class="cls-1" d="M220.09,366.28c.07-1.01.14-2.02.22-3.03,3.12.21,6.25.27,9.38.27.07.75.2,2.24.27,2.99-.8,0-2.4.01-3.2.01.08,6.42-.41,12.82-.24,19.24-1.36,0-2.73,0-4.09.01.26-6.51.47-13.03.84-19.54-.8.02-2.38.04-3.18.05Z"/>
</svg>