<?xml version="1.0" encoding="UTF-8"?>
<svg id="Layer_1" data-name="Layer 1" xmlns="http://www.w3.org/2000/svg" viewBox="0 0 512 512">
  <path d="M235.16,13.16c2.07-8.92,11.92-15,20.79-12.4,11.28,3.36,22.47,7.02,33.68,10.61,8.36,2.58,13.56,12.19,11.16,20.61-3.47,12.16-7.31,24.23-10.87,36.37,5.05.14,10.39-.66,15.13,1.5,5.63,2.37,9.64,8.03,10.06,14.11.22,3.72-.16,7.44-.22,11.16,13.25,2.39,26.62,4.1,39.78,6.9,1.03-4.78,1.41-9.73,3.06-14.37,2.72-7.19,10.76-11.85,18.36-10.48,5.63,1.01,11.13,2.58,16.72,3.79.32-7.6.28-15.23.81-22.82.71-8.22,8.16-15.11,16.39-15.32,9.32-.19,18.64,0,27.96-.08,4.23.02,8.71-.32,12.61,1.63,6.26,2.89,10.05,9.81,9.95,16.59.09,25.26,0,50.51.05,75.76,2.82.02,5.65.21,8.42.78,10.05,1.91,20.19,3.42,30.21,5.48,8.95,2.12,14.34,12.26,11.94,20.98-9.33,42.06-18.74,84.1-28.09,126.16,6.89.03,13.79-.2,20.67.09,3.83.06,6.56,3.01,8.27,6.15v1.51c-.27,1.94-.57,3.89-1.1,5.79-12.52,42.82-24.99,85.65-37.49,128.47-4.29,13.7-6.98,28.2-14.74,40.51-10.61,17.56-28.1,30.83-47.9,36.23-6.76,1.98-13.79,2.62-20.78,3.13H121.87c-16.03-.68-32-5.44-45.15-14.76-15.26-10.54-26.62-26.48-31.79-44.28-14.62-49.98-29.16-99.99-43.78-149.97-1.12-3.38-1.12-7.52,1.58-10.17,2.07-2.29,5.3-2.76,8.22-2.74,13.4.01,26.79.03,40.19-.01,0-2.29.02-4.58,0-6.87-14.73-11.39-29.56-22.65-44.27-34.06-3.81-2.93-6.11-7.41-6.88-12.09v-3.11c.41-3.36,1.55-6.62,3.55-9.36,4.98-7.03,9.96-14.06,14.99-21.05,4.13-5.95,12.29-8.77,19.15-6.29,5.05,2,8.98,5.94,13.45,8.91.05-17.35-.02-34.71.03-52.07-.34-8.8,7.03-17.01,15.86-17.37,8.91-.28,17.83-.05,26.75-.11-.47-8.28,5.28-16.54,13.59-18.08,13.12-2.34,26.29-4.33,39.43-6.56-.62-16.37-1.12-32.73-1.73-49.1-.15-3.45-.02-7.05,1.55-10.2,2.68-5.91,8.95-9.91,15.44-9.87,9.97-.12,19.94.01,29.92-.05,3.66,0,7.49-.16,10.92,1.35,5.83,2.32,10.04,8.12,10.44,14.39.47,8.03.56,16.07.92,24.11,6.99-23.14,13.91-46.29,20.9-69.43ZM251.64,17.2c-7.61,25.58-15.33,51.14-22.92,76.72,5.98.02,11.96.03,17.95,0,.25-7.13-.34-15.44,5.49-20.7,5.13-5.48,13.06-5.04,19.92-4.88,4.08-13.49,8.14-26.99,12.19-40.49-10.87-3.56-21.74-7.13-32.63-10.65ZM162.11,59.83c2.62,76.75,5.28,153.5,7.93,230.25,11.44.01,22.88.02,34.32-.01-2.63-76.76-5.32-153.51-7.99-230.27-11.42.04-22.84-.01-34.26.03ZM409.75,84.89c3.3.77,6.65,1.83,9.24,4.11,4.95,4.01,7.16,10.83,5.82,17.03-6.44,38.45-12.85,76.91-19.32,115.36,5.77,7.13,11.66,14.16,17.44,21.28,6.76-26.87,13.28-53.79,19.99-80.67,1.01-3.59.44-7.35.58-11.03-.12-30.42.23-60.85-.18-91.26-10.93-.02-21.85.09-32.78.1-.3,8.36-.51,16.72-.79,25.08ZM264.08,85.4c-2.67,68.23-5.24,136.46-7.9,204.68,11.37.02,22.74,0,34.11.02,2.72-68.18,5.17-136.37,7.96-204.54-11.38-.36-22.78-.04-34.17-.16ZM373.5,93.98c-5.04,26.97-10,53.96-15.09,80.92,5.35.16,10.69,2.35,14.12,6.56,6.25,7.45,12.36,15.01,18.59,22.48,5.67-33.89,11.36-67.79,16.99-101.69-11.48-3.02-23.07-5.55-34.61-8.27ZM215.24,111.03c2.09,59.68,4.11,119.36,6.21,179.04,5.89.04,11.78.02,17.67.01,2.31-59.69,4.58-119.38,6.88-179.07-10.25,0-20.5-.04-30.76.02ZM307.37,290.08c4.07.01,8.15.03,12.22-.01,3.53-18.68,7.05-37.37,10.55-56.05-3.07-3.96-6.66-7.51-9.4-11.72-3.79-6.22-2.69-14.87,2.49-19.98,5.03-5.05,10.36-9.79,15.4-14.83,1.29-4.75,1.87-9.67,2.54-14.54,2.49-18.31,4.95-36.61,7.47-54.92-11.46-1.92-22.92-3.78-34.37-5.73-2.4,59.25-4.58,118.52-6.9,177.78ZM110.95,135.16c5.18,51.62,10.44,103.24,15.62,154.86,8.8.15,17.59.04,26.39.06-1.84-53.64-3.73-107.28-5.58-160.92-12.14,1.99-24.29,3.99-36.43,6ZM68.19,153.65c.08,21.68,0,43.36.04,65.05,12.23,8.96,24.47,17.92,36.7,26.89-3.11-30.66-6.2-61.32-9.36-91.97-9.13.02-18.26-.02-27.38.03ZM462.01,153.61c-11.06,45.49-22.17,90.97-33.21,136.47,12.28-.02,24.56.11,36.84-.07,9.62-43.47,19.36-86.91,29.01-130.37-10.88-2.04-21.76-3.99-32.64-6.03ZM335.54,214.1c21.44,25.14,42.57,50.55,63.78,75.91,3.96.17,7.92.03,11.89.1,2.27-8.91,4.41-17.85,6.63-26.78-19.6-23.83-39.18-47.68-58.85-71.45-7.99,7.21-15.65,14.8-23.45,22.22ZM17.2,234.83c22.83,17.83,45.74,35.56,68.57,53.38,1.01.61,1.82,1.82,3.08,1.84,6.87.1,13.74.02,20.6.03-.75-7.19-1.48-14.38-2.18-21.57-25.01-18.47-50.14-36.77-75.18-55.19-5,7.14-9.93,14.34-14.89,21.51ZM347.25,254.43c-1.63,11.88-3.2,23.77-4.86,35.65,11.52-.01,23.04.06,34.57-.04-9.73-12.01-19.82-23.74-29.71-35.61ZM20.15,307.17c12.36,42.29,24.67,84.58,37.02,126.87,3.54,12.39,6.8,25.37,15.1,35.58,8.32,10.9,20.29,19.01,33.53,22.62,11.1,3.34,22.81,2.44,34.25,2.57h233.98c10.74-.08,21.75.62,32.18-2.51,13.21-3.54,25.21-11.57,33.55-22.42,6.8-8.35,10.52-18.65,13.31-28.93,13-44.6,26.04-89.18,39-133.79-157.3,0-314.61-.02-471.92.01Z"/>
  <path d="M82.27,359.1c4.72-2.22,10.54,1.05,11.61,6.05,5.74,20.93,11.27,41.92,17.01,62.85,2.38,8.89,10.98,15.55,20.19,15.59,15.65.09,31.31-.01,46.96.04,2.95-.06,6.04.98,7.8,3.47,2.83,3.55,1.97,9.32-1.8,11.86-2.29,1.75-5.33,1.75-8.08,1.75-15.3-.12-30.61.14-45.91-.14-16.07-.39-30.94-11.98-35.41-27.39-5.83-21.16-11.47-42.38-17.17-63.58-1.24-4.06.72-8.95,4.8-10.5Z"/>
  <path d="M210.2,444.28c4.16-1.07,8.58-.74,12.83-.42,6.17.61,9.4,8.83,5.34,13.49-3.68,4.68-10.33,3.16-15.49,3.23-5.2-.08-9.39-5.6-7.79-10.62.61-2.59,2.66-4.71,5.11-5.68Z"/>
</svg>