<?xml version="1.0" encoding="UTF-8"?>
<svg id="Layer_1" data-name="Layer 1" xmlns="http://www.w3.org/2000/svg" viewBox="0 0 211.28 317.54">
  <defs>
    <style>
      .cls-1 {
        fill: #010101;
      }
    </style>
  </defs>
  <path class="cls-1" d="M60.59,2.61c25.03-6.64,53.05-.42,72.74,16.44,2.72,2.6,6.51,4.71,7.5,8.59.13,2.49-1.92,4.2-3.44,5.86-31.93,32.8-63.85,65.61-95.74,98.45,46.63-.05,93.27-.03,139.9,0,2.77-.33,5.52,2.08,5.4,4.89.13,3.56-.02,7.14.04,10.71,6.45.21,13.95-1.41,19.24,3.32,5.12,3.97,5.29,10.92,4.94,16.83.13,6.87-5.54,13.44-12.47,13.86-4.55.22-9.1.07-13.65.01-4.93,18.93-16.24,36.14-32.27,47.48,7,13.82,13.89,27.69,20.8,41.55,4.31.14,8.66-.27,12.95.17,4.35.7,5.37,7.31,1.45,9.28-2.93,1.15-6.23.38-9.31.58,4.91,9.8,9.87,19.59,14.71,29.43,2.1,3.26-.96,7.99-4.78,7.45-2.48-.02-3.92-2.23-4.81-4.23-5.34-10.86-10.9-21.6-16.19-32.48-18.85-.39-37.72.01-56.58-.2-.32,11.05.14,22.13-.23,33.18-1.09,5.06-9.14,4.82-9.81-.34-.25-10.93,0-21.88-.11-32.81-18.83.05-37.65.02-56.48.01-5.83,11.22-11.34,22.61-17.06,33.89-1.22,3.11-5.83,4.1-8.08,1.56-1.87-1.6-1.84-4.47-.67-6.46,4.89-9.64,9.64-19.35,14.55-28.97-3.6-.48-8.68,1.43-11.02-2.28-2.38-3,.34-7.61,3.94-7.72,4.06-.19,8.12.08,12.17-.14,6.89-13.88,13.83-27.74,20.8-41.58-16.01-11.2-27.48-28.39-32.14-47.33-7.41-.48-16.36,2.06-22.16-3.98C-.01,173.29.58,166.51.77,160.7c.04-6.47,5.42-12.15,11.75-13.03,4.11-.38,8.25-.07,12.37-.18.01-2.76,0-5.51.04-8.26C12.46,127.02,3.65,110.93,1.05,93.6c-3.06-18.48.66-38,10.32-54.06C22.06,21.39,40.19,7.82,60.59,2.61ZM25.52,36.7c-10.62,13.11-16.19,30.18-15.42,47.04.57,17.1,7.87,33.66,19.58,46.05,18.31-18.64,36.39-37.49,54.69-56.14,14.6-15.34,29.7-30.21,44.18-45.68-15.16-13.28-35.86-20-55.92-17.47-18.31,2.14-35.68,11.7-47.11,26.2ZM34.91,141.91c-.02,3.25-.03,6.51,0,9.76,47.36,0,94.7.05,142.05.01.03-3.26.03-6.53.02-9.79-47.35.11-94.72.08-142.07.02ZM10.76,161.65c.26,3.16-1.15,7.25,1.72,9.58,4.2.79,8.53.17,12.79.38-.45-4.68-.37-9.37-.37-14.06-3.46.07-6.92-.05-10.38.04-2.11-.05-4.07,1.9-3.76,4.06ZM186.99,157.55c.05,4.68-.04,9.36-.37,14.04,3.66-.04,7.32.12,10.97-.04,2.39.05,3.87-2.52,3.55-4.69-.21-3.02,1.08-7.66-2.61-9.03-3.8-.6-7.7-.07-11.54-.28ZM34.91,161.7c-.8,24.19,12.23,48.05,32.66,60.91,15.42,10.09,34.89,13.38,52.88,9.71,17.06-3.51,32.7-13.55,42.89-27.69,9.14-12.31,13.83-27.69,13.66-42.99-47.36.06-94.73-.05-142.09.06ZM67.52,234.19c-5.95,12.18-12.16,24.23-18.18,36.38,17.18.08,34.36-.04,51.53.05.02-9,.04-18,0-27-11.63-.61-23.11-3.9-33.36-9.43ZM111,243.59c-.2,9.01-.03,18.02-.09,27.03,17.19-.12,34.37.1,51.55-.11-6.28-12.02-12.03-24.32-18.36-36.32-10.09,5.65-21.57,8.78-33.1,9.4Z"/>
  <path class="cls-1" d="M122.95,64.32c1.72-1.65,4.38-1.31,6.36-.35,4.88,1.94,8.87,6.39,9.36,11.75.41,5.97-2.71,11.46-6.26,16.01-3.3,4.06-7.85,8.22-7.44,13.92.81,5.29,5.58,8.54,9.85,11.07,3.33,1.73,3,7.18-.4,8.62-2.61,1.48-5.37-.38-7.56-1.76-5.91-3.76-11.11-9.66-11.84-16.88-.76-6.65,2.48-13,6.72-17.9,3.07-3.5,6.44-7.26,7.07-12.07-.66-3.01-4.06-3.44-6.19-4.99-2.07-1.94-1.95-5.7.33-7.42Z"/>
  <path class="cls-1" d="M151.91,70.35c-1.9-3.11,1.12-7.62,4.7-7.16,6.15.97,11.83,6.18,12.29,12.61.4,5.73-2.49,11.06-5.89,15.46-3,3.86-7.1,7.41-7.8,12.52-.56,4.63,3.01,8.35,6.49,10.82,2.03,1.53,5.21,2.36,5.6,5.29.85,3.17-1.91,5.6-4.72,6.27-7.62-2.63-14.39-8.77-16.8-16.58-1.95-6.84.78-14.09,5.12-19.42,3.19-4.11,7.62-8.01,8.06-13.51-.69-3.69-5.68-3.15-7.05-6.3Z"/>
  <path class="cls-1" d="M50.7,174.86c2.86-1.84,6.71.27,7.38,3.43,4.24,12.86,13.84,23.81,26.02,29.72,3.31,1.07,4.51,5.79,1.97,8.2-1.43,1.71-4.07,1.89-5.99.97-14.99-7.08-26.79-20.6-31.72-36.43-.87-2.23.3-4.79,2.34-5.89Z"/>
</svg>