<?xml version="1.0" encoding="UTF-8"?>
<svg id="Layer_1" data-name="Layer 1" xmlns="http://www.w3.org/2000/svg" viewBox="0 0 512 512">
  <path d="M372.32,0h3.22c11.86.55,23.74,3.35,34.08,9.32,13.23,7.32,24.01,18.96,30.33,32.69,1.32,2.74,2.95,5.82,1.91,8.94-1.21,4.41-6.62,7-10.79,5.07-3.17-1.18-4.46-4.57-5.87-7.35-5.7-12.5-16.29-22.61-28.93-27.93-13.58-5.75-29.44-6.06-43.12-.49-16.48,6.49-29.42,21.19-33.76,38.37-2.66,9.91-1.54,20.26-2.44,30.38-2.79,44.37-18.16,87.82-43.74,124.17-21.01,30.04-48.85,55.26-80.78,73.28-35.35,19.98-75.76,30.96-116.38,31.42-9.21.14-18.58,1.26-26.99,5.25-15.77,6.95-27.91,21.63-31.61,38.48-.85,3.54-1.87,7.83-5.7,9.26-5.12,2.55-11.73-2.18-11.1-7.82,3.9-28.59,27.01-53.14,55.13-59.3,10.91-2.72,22.23-1.57,33.32-2.58,57.66-4.03,113.47-31,152.06-74.09,36.64-39.19,58.07-91.99,60.02-145.54-20.9,2.92-40.19,15.68-50.62,34.08-5.35,9.01-7.77,19.33-12.1,28.81-18.08,41.9-52.46,76.51-94.41,94.56-9.54,4.34-19.93,6.75-29,12.12-14.45,8.41-25.81,22.17-30.95,38.12-1,2.91-2.19,6.25-5.27,7.55-4.15,2.15-9.74-.37-11.03-4.81-1.07-3.19.52-6.39,1.48-9.39,8.02-23.07,26.5-42.2,49.26-51.06,6.43-2.63,13.11-4.65,19.45-7.51,41.44-17.93,74.67-53.69,89.67-96.25,3.88-10.99,8.66-21.87,16.25-30.83,13.96-17.88,35.44-29.16,57.86-31.78,1.86-16.77,9.58-32.85,21.79-44.54,12.89-12.72,30.7-20.05,48.76-20.6Z"/>
  <path d="M351.4,62.62c4.05-1.43,8.97,1.17,9.91,5.39,1.27,8.15-2.25,16.47-8.08,22.12-3.86,3.52-7.06,8.41-6.44,13.87.29,5.1,4.21,8.77,6.28,13.17,5.95,12.22,1.54,28.53-10.18,35.61-4.49,2.5-8.45,6.48-9.3,11.73-1.04,4.67,1.42,8.97,2.74,13.29,3.46,11.71-1.96,25.07-12.33,31.37-4.18,2.76-9.6,3.11-13.41,6.5-4.47,3.65-6.03,9.77-4.88,15.3,2.21,13.02-6.27,26.53-18.73,30.62-5.15,2.01-11.15.58-15.99,3.53-4.28,2.35-7.18,6.84-7.57,11.71-.63,9.93-6.61,19.67-15.8,23.82-5.71,2.95-12.38,3.65-18.63,2.31-5-1.15-10.39.4-14,4.04-3.69,3.53-4.18,8.95-6.83,13.13-3.49,5.91-9.4,10.07-15.77,12.4-6.36,1.76-13.27,1.39-19.39-1.08-4.52-1.89-9.94-2.37-14.24.33-4.99,2.76-6.5,8.73-10.37,12.59-7.21,7.99-19.07,11.04-29.3,7.85-5.29-1.38-9.41-5.99-15.1-6.05-5.23-.32-9.96,2.78-13.01,6.82-4.98,6.4-12.7,11.07-20.96,11.13-5.73-.18-9.2-7.33-6.14-12.07,1.65-3.32,5.57-3.73,8.73-4.63,4.53-1.39,6.91-5.79,10.07-8.94,7.11-6.92,17.82-10.06,27.48-7.53,4.45.88,8.16,3.62,12.25,5.42,5.15,2.21,11.69.67,15.08-3.85,2.58-3.45,4.39-7.51,7.7-10.37,6.17-6.14,15.15-9.26,23.79-8.12,4.15.28,7.91,2.19,11.87,3.26,5.68,1.47,11.98-1.79,14.47-7,1.53-3.14,2.48-6.56,4.36-9.52,5.5-9.27,16.51-14.95,27.26-13.91,4.88.47,10.31,1.76,14.69-1.23,4.48-2.56,5.85-7.86,6.38-12.63,1.56-12.72,12.26-23.74,25.09-25.17,5.34-.41,11.42-1.2,14.68-6.04,4.19-5.46.93-12.48,1.93-18.65.88-10.94,8.57-20.84,18.86-24.57,4.1-1.46,8.61-3.1,10.86-7.13,2.74-4,1.98-9.14.19-13.36-3.39-8.53-3.02-18.65,1.87-26.54,2.87-5.06,7.53-8.7,12.35-11.77,5.86-3.78,7.7-12.47,3.48-18.13-4.45-6.23-7.28-13.86-6.58-21.59.72-6.2,3.11-12.32,7.36-16.96,2.03-2.3,4.5-4.29,5.99-7.03,1.42-2.75,1.2-5.97,2.14-8.88.87-2.23,2.89-3.88,5.17-4.56Z"/>
  <path d="M395.92,78.77c13.41-9.92,30.33-14.92,46.99-13.9,14.25.72,28.22,5.86,39.58,14.49,15.15,11.32,25.64,28.77,28.25,47.53,1.03,6.65.79,13.41.6,20.11-1.56,74.64-26.47,148.54-70.21,209.02-45.03,62.76-109.87,111.16-183.11,135.86-37.69,13.05-77.52,19.56-117.38,20.12h-5.23c-18.35-.47-36.39-8.03-49.41-20.99-11.92-11.66-19.51-27.52-21.34-44.07-5.64-.75-11.28-1.83-16.59-3.94-24.73-8.3-43.68-31.23-47.48-56.98-.98-5.73,5.45-10.67,10.74-8.43,4.43,1.5,5.34,6.56,6.23,10.53,4.93,22.18,24.83,39.86,47.37,42.42,1.53-14.7,8.08-28.73,17.89-39.72,12.13-13.62,29.52-22.5,47.73-23.99,7.49-.55,15.02-.34,22.51-.95,37.72-2.59,74.76-14.76,106.62-35.14,30.94-19.67,57.08-46.85,75.46-78.58,19.26-33,29.97-70.93,30.78-109.14.15-7.85.35-15.8,2.41-23.43,4.06-16.28,14.05-30.94,27.59-40.82ZM432.17,81.26c-20.38,2.26-38.83,16.54-46.06,35.73-3.25,7.91-3.99,16.53-4.01,24.99-.48,33.7-8.2,67.25-22.34,97.82-24.28,52.96-68.08,96.65-121.13,120.72-31.44,14.5-66.03,21.9-100.62,22.11-10.33-.01-20.73,2.51-29.62,7.86-14.55,8.46-24.93,23.72-27.31,40.4-2.08,13.61,1.06,27.94,8.7,39.4,8.54,13.15,22.8,22.41,38.3,24.78,6.07,1.05,12.24.7,18.35.53,66.15-1.44,131.68-22.04,186.95-58.36,31.69-20.8,60.06-46.67,83.73-76.28,48.2-60.02,76.15-136.02,78.04-212.99.15-6.95.65-13.98-.73-20.84-2.53-13.79-10.41-26.5-21.65-34.88-11.46-8.71-26.32-12.71-40.6-10.99Z"/>
</svg>