<?xml version="1.0" encoding="UTF-8"?>
<svg id="Layer_1" data-name="Layer 1" xmlns="http://www.w3.org/2000/svg" viewBox="0 0 512 512">
  <defs>
    <style>
      .cls-1 {
        fill: #fff;
      }
    </style>
  </defs>
  <path class="cls-1" d="M227.45,27.43c8.5-5.28,18.82-6.02,28.57-6.31,9.54.29,19.56,1,27.97,5.97,4.39,2.48,7.8,6.91,8.37,12,.61,7.46-1.88,14.8-5.58,21.19,34.54,5.09,67.87,18.39,96.14,38.92,20.14,14.55,37.85,32.54,51.81,53.11,3.16,4.15.42,10.81-4.73,11.54-3.81.83-6.96-1.94-8.88-4.89-19.6-28.09-46.6-50.9-77.43-65.79-34.43-16.59-73.69-23.43-111.65-18.51-12.38,1.31-24.6,4.04-36.47,7.76-51.66,15.89-95.95,53.82-119.97,102.2-12.15,23.78-18.88,50.11-20.96,76.68,8.34.12,16.69-.18,25.02.12,3.96.07,7.35,3.64,7.12,7.61,0,4.05-3.75,7.4-7.77,7.19-18.99.21-38-.09-57,.13-3.19-.05-6.37,2.3-6.78,5.56-.41,4.22-.62,8.58.27,12.76,1.14,3.52,5.08,4.77,8.46,4.5,155.01-.05,310.03.01,465.05-.03,3.37.26,7.03-1.73,7.69-5.23.57-3.96.52-8.02.07-11.98-.44-3.7-4.25-5.9-7.74-5.64-124.68-.05-249.36.06-374.03-.05-4.92.46-9.34-4.52-7.85-9.33.87-3.96,5.09-5.88,8.84-5.61,113.79.01,227.58.01,341.37,0-1.78-22.05-6.52-43.99-15.36-64.33-1.27-3.26-2.98-6.43-3.45-9.94-.33-4.81,4.88-8.84,9.45-7.3,4.76,1.33,5.73,6.78,7.51,10.69,9.77,22.41,15.02,46.56,16.87,70.89,6.91.15,13.84-.34,20.74.29,10.02,1.13,18.06,10.04,18.88,19.98v11.84c-.55,10.89-10.02,20.48-21.01,20.63-20.4.25-40.8.03-61.2.11,2.1,8.26,1.16,18.16-5.56,24.12-14.08,12.58-28.27,25.04-42.38,37.58-10.08,9.36-21.77,16.93-34.17,22.82-11.37,5.46-23.56,8.88-35.69,12.16-12.85,3.59-25.79,7.31-39.15,8.4-16.02,1.92-32.13-.26-47.97-2.65-15.9-1.83-32.2-2.91-47.98.4-10.19,2.06-19.37,7.7-26.4,15.28,5.5,4.17,9.64,10.57,9.42,17.67.22,8.75-6.35,15.27-10.68,22.19-4.5,6.08-7.82,13.79-15.11,17.05-7.03,3.51-15.61,1.95-21.85-2.49-31.33-21.31-62.71-42.57-94.01-63.93-7.9-5.14-11.49-15.91-7.85-24.68,2.49-5.71,6.62-10.49,9.93-15.72,4.13-5.69,7.34-12.71,14-15.91,6.41-3.32,14.24-2.63,20.41.91,11.22-13.64,22.48-27.26,33.67-40.92,3.97-4.86,9.07-8.59,14.1-12.28-26.84-.05-53.67.07-80.5-.05-11.33.29-21.44-9.36-22.02-20.62v-11.78c.73-9.38,7.82-17.93,17.12-19.8,7.45-1.25,15.06-.26,22.57-.67,1.35-17.75,4.35-35.42,9.9-52.36,16.24-51.73,53.07-96.51,100.31-123.01,23.19-13.19,48.93-21.61,75.27-25.6-3.49-6.14-5.9-13.09-5.61-20.24.23-5.21,3.48-9.95,7.89-12.6ZM234.37,40.75c.35,7,3.88,13.61,9.6,17.69,8-.48,16.03-.43,24.03,0,5.78-4.01,9.26-10.69,9.63-17.68-6.39-4.07-14.25-4.49-21.6-4.7-7.37.2-15.25.62-21.66,4.7ZM140.56,314.7c-17.46,2.69-34.14,12.09-44.73,26.35-9.56,11.61-19.12,23.2-28.66,34.82,23.58,16.05,47.18,32.07,70.77,48.1,5.28-5.81,11.16-11.17,18.11-14.9,13.55-7.75,29.59-9.25,44.91-9.25,16.19.03,32.13,3.12,48.18,4.8,16.13,1.37,32.37-.82,47.91-5.18,11.03-3.16,22.21-5.84,33.05-9.63,13.39-4.79,25.91-11.94,36.97-20.86,15.32-13.6,30.71-27.14,46-40.77,4.03-3.13,3.74-10.07-.18-13.12-3.58-1.86-7.62.22-10.72,2.13-15.07,9.92-30.1,19.91-45.15,29.87-1.51.97-3.15,1.71-4.86,2.21-14.24,4.1-28.47,8.21-42.7,12.36-2.08.61-4.24.92-6.41.92-10.01.13-20.02.5-30.03.58-3.65.22-7.25-2.43-7.82-6.09-.75-3.42,1.4-6.84,4.45-8.3,6.53-3.53,13.13-6.94,19.69-10.42,2.48-1.37,5.06-3.01,6.31-5.66,2.57-4.8.55-11.72-4.65-13.78-3.15-1.64-6.82-1.07-10.13-.38-18.64,3.94-37.3,7.78-55.93,11.71-3.6.75-7.34,1.85-10.98.71-15.98-4.31-31.96-8.63-47.94-12.96-8.25-2.31-16.83-4.76-25.46-3.26ZM209.65,314.32c2.72.66,5.39,1.56,8.17,1.94,3.24-.39,6.42-1.2,9.59-1.97-5.92-.22-11.84-.22-17.76.03ZM307.75,314.15c3.68,5.86,5.06,13.16,3.32,19.91-1.2,5.36-4.5,9.89-8.33,13.7,13.57-3.53,26.95-7.75,40.46-11.52,2.49-.73,5.11-1.29,7.26-2.82,9.67-6.46,19.4-12.82,29.08-19.27-23.93,0-47.86.02-71.79,0ZM42.38,379.36c-2.75.62-4.13,3.32-5.63,5.43-3.91,6.01-8.17,11.79-11.96,17.88-1.91,2.87-.27,6.64,2.55,8.18,30.9,21.03,61.86,41.99,92.75,63.04,1.8,1.17,3.76,2.65,6.05,2.22,2.6-.25,4.06-2.61,5.41-4.54,3.98-6.02,8.14-11.92,12.11-17.95,1.56-2.08,1.81-5.2.03-7.22-1.82-1.92-4.18-3.2-6.32-4.7-29.78-20.23-59.55-40.47-89.32-60.7-1.65-1.1-3.62-2.26-5.67-1.64Z"/>
</svg>