<?xml version="1.0" encoding="UTF-8"?>
<svg id="Capa_1" data-name="Capa 1" xmlns="http://www.w3.org/2000/svg" viewBox="0 0 256 256">
  <defs>
    <style>
      .cls-1 {
        fill: #fff;
      }
    </style>
  </defs>
  <path class="cls-1" d="M128,4C59.6,4,4,59.6,4,128c0,21,5.2,41.6,15.4,59.8l-10.6,38.8c-1.8,6.2,0,12.6,4.6,17.2,4.6,4.6,11,6.4,17.2,4.8l40.4-10.6c17.6,9.2,37.2,14,57.2,14,68.4,0,124-55.6,124-124,0-33.2-12.8-64.2-36.2-87.6-23.6-23.4-54.8-36.4-88-36.4ZM128,16c30,0,58.2,11.6,79.2,32.8,21.2,21.2,33,49.4,32.8,79.2,0,61.8-50.2,112-112,112-18.6,0-37.2-4.8-53.6-13.6-.8-.4-1.8-.8-2.8-.8-.6,0-1,0-1.6.2l-42.6,11.2c-3,.8-5-.8-5.8-1.6-.8-.8-2.4-2.8-1.6-5.8l11.2-41.2c.4-1.6.2-3.2-.6-4.6-9.6-16.8-14.6-36.2-14.6-55.8,0-61.8,50.2-112,112-112ZM128,34c-51.8,0-94,42-94,94,0,16.6,4.4,32.8,12.6,47,3.2,5.6,4,12.2,2.4,18.4l-5.8,21,22.4-5.8c2-.6,4-.8,6-.8,4,0,8,1,11.4,3,13.8,7.2,29.2,11.2,45,11.2,51.8,0,94-42.2,94-94,0-25.2-9.8-48.8-27.6-66.6-17.6-17.6-41.2-27.4-66.4-27.4ZM86.2,73.4h5.6c2.2,0,4.4.2,6.6,5,2.6,5.8,8.4,20.4,9,21.8.8,1.4,1.2,3.2.2,5.2s-1.4,3.2-3,5c-1.4,1.8-3.2,3.8-4.4,5.2-1.4,1.4-3,3-1.2,6s7.6,12.6,16.4,20.4c11.2,10,20.8,13.2,23.8,14.6s4.6,1.2,6.4-.8,7.4-8.6,9.4-11.6,4-2.4,6.6-1.4c2.8,1,17.2,8.2,20.2,9.6s5,2.2,5.6,3.4c.8,1.6.8,7.4-1.6,14.4-2.4,6.8-14.4,13.6-20,14-5.4.4-10.4,2.4-35.4-7.4-30-11.8-49-42.6-50.4-44.6s-12-16-12-30.6,7.6-21.6,10.4-24.6,5.8-3.6,7.8-3.6Z"/>
</svg>